<?xml version="1.0" encoding="utf-8"?>
<!-- Generator: Adobe Illustrator 27.0.0, SVG Export Plug-In . SVG Version: 6.00 Build 0)  -->
<svg version="1.1" id="图层_1" xmlns="http://www.w3.org/2000/svg" xmlns:xlink="http://www.w3.org/1999/xlink" x="0px" y="0px"
     viewBox="0 0 200 200" style="enable-background:new 0 0 200 200;" xml:space="preserve">
<g>
	<g>
		<path d="M101.1,177.9c-10.4,0-20.8-0.1-31.2,0.1c-5.5,0.1-9.6-1.4-13.3-6c-11.5-14.1-23.2-27.9-35.2-41.5
			c-5.4-6.1-6.9-12.1-4.7-20.2c4.3-15.8,7.9-31.9,11-48c1.8-9,6.5-14.2,14.8-17.6C60,37.1,77.4,29,94.8,21.2c4.4-2,8.7-1.9,13.1,0
			c17.5,7.8,34.8,16,52.5,23.2c9.4,3.8,13,11.2,15.1,19.8c4.1,16.8,7.8,33.8,11.6,50.7c1.1,4.6-0.3,8.6-3.3,12.2
			c-13.3,15.7-26.6,31.5-39.9,47.3c-2.4,2.8-5.6,3.4-9,3.4C123.7,177.9,112.4,177.9,101.1,177.9z M69,55.5
			c-4.6,1.1-7.9,4.8-11.3,8.1c-3.4,3.3-3.5,6.8,0.1,9.8c3.9,3.2,4,5.9,1.5,9.8c-1.3,1.9-1.7,3.9-4.6,4.1c-9.1,0.7-11.2,3-11.2,12
			c0,7.5,3,11.1,10.4,11.1c6.3,0,5.1,5.9,7.7,8.7c1.6,1.7-1.6,2.7-2.7,3.8c-2.4,2.5-4.9,4.9-2.9,8.6c2.6,4.8,7,7.9,11.7,10.2
			c3.7,1.8,6.3-1.5,9.2-3.5c5-3.4,11.6-0.1,12,6c0.3,5.2,2.9,8.1,8,8.6c2.5,0.3,5.1,0.2,7.7,0.1c6.2-0.3,9-3.1,9.3-9.2
			c0.1-1.8,0-3.5,1.9-4.7c5.9-3.6,7.6-3.5,13.1,1c3.2,2.6,6.2,2.7,9.3,0c1.3-1.1,2.6-2.1,3.9-3.1c6.8-5.4,6.9-8.9,0.8-14.9
			c-0.8-0.8-2.6-1.3-2-2.7c1.2-2.7,2.7-5.4,4.4-7.9c1.2-1.7,3.3-0.9,5.1-1c1.7-0.1,3.1-0.9,4.6-1.6c5.4-2.7,4.3-7.6,4.3-12.2
			c0-4.6-3.6-9.3-8-9.2c-5.1,0.1-6.9-2.2-8.8-6.4c-1.4-2.9-1.4-4.2,1.1-6.1c2.3-1.8,5-3.9,3.9-7.5c-1.9-5.8-7.1-8.5-11.7-11.3
			c-3.5-2.1-6.2,1-8.5,3.3c-3.7,3.8-6.9,0.6-10.2-0.5c-2.8-0.9-2.9-3.1-2.8-5.5c0.1-4.6-2.2-7.5-6.6-8.5c-4-0.8-8.1-0.9-12.1,0.1
			c-4,0.9-6.2,3.6-6.3,7.7c-0.1,2.6,0.2,5-3.1,6.3c-3.7,1.4-7.1,2.7-10.3-0.9C73.9,56.5,71.7,56.1,69,55.5z"/>
    <path d="M101.7,83.3c10.2,0.3,16.4,6.6,16.2,15.9c-0.2,9.4-6.6,15.4-16.8,15.3c-10.3-0.2-16.4-6.6-16.2-15.8
			C85,89.2,91.5,83.2,101.7,83.3z"/>
	</g>
</g>
</svg>
