<?xml version="1.0" encoding="utf-8"?>
<!-- Generator: Adobe Illustrator 27.0.0, SVG Export Plug-In . SVG Version: 6.00 Build 0)  -->
<svg version="1.1" id="图层_1" xmlns="http://www.w3.org/2000/svg" xmlns:xlink="http://www.w3.org/1999/xlink" x="0px" y="0px"
	 viewBox="0 0 200 200" style="enable-background:new 0 0 200 200;" xml:space="preserve">
<g>
	<g>
		<path d="M100.8,188.2c-10.8,0-21.7-0.2-32.5,0.1c-5.6,0.1-9.7-1.4-13.3-6.1c-13.3-17-26.8-33.8-40.5-50.5c-3.6-4.4-4.2-9-3-14.4
			c4.9-21.1,9.7-42.1,14.5-63.2c1.1-4.7,3.6-8.1,8-10.2C54,34.4,74,24.8,94,15.3c4.5-2.1,9.1-2.3,13.5-0.2
			c19.4,9.2,38.7,18.6,58.1,27.8c6,2.9,9.4,7.2,10.9,13.9c4.5,20.5,9.3,40.9,14.1,61.3c1.2,5.3,0.2,9.8-3.2,14
			c-14,17.3-28,34.7-42,52.1c-2.4,3-5.4,4.2-9.2,4.1C124.4,188.1,112.6,188.2,100.8,188.2z M150.9,101.6c-1.4,2.7-2.9,5.8-4.6,8.9
			c-5,8.8-10.1,17.6-14.9,26.5c-2.2,4,0.2,8.4,4.2,8.6c3.2,0.2,4.8-2.3,6.1-4.5c7.1-12.2,14-24.5,21-36.8c1.5-2.7,0.9-4.9-0.6-7.4
			C155,84.6,148,72.4,141.1,60c-1-1.8-2.1-2.9-4-3.3c-2.3-0.5-4.4,0.2-5.7,2.1c-1.9,2.7-1.3,5.4,0.3,8c5.6,9.6,11.2,19.2,16.8,28.9
			C149.4,97.4,150.5,99.1,150.9,101.6z M69.7,62.9c0.1-3.1-1.9-4.6-4.4-5.2c-3.8-0.9-6.2,1.5-8.1,4.4c-1.3,2-1.3,4.4-2.5,6.4
			C49.4,77.2,44.5,86,39.4,94.8c-1.8,3.1-3.4,6.6-1.5,9.9c7,12.5,14.2,24.8,21.3,37.1c1.7,3,4,5.1,7.7,2.8c3.8-2.3,3.5-5.5,1.7-8.7
			c-5.9-10.6-11.9-21.1-18-31.6c-1.3-2.3-1.5-3.9-0.1-6.3C56.6,87.9,62.4,77.4,68.3,67C69.1,65.7,69.9,64.5,69.7,62.9z M117.9,64.4
			c0-3.4-1-6.5-4.5-6.9c-4.1-0.5-6.1,2.7-7.2,6.3c-2.8,9-5.3,18.1-8.2,27.2c-5,15.7-10.2,31.2-15.2,46.9c-1.2,3.6-0.6,6.9,3.2,8.2
			c3.8,1.4,5.7-1.4,7.2-4.4c0.3-0.6,0.4-1.3,0.6-1.9c7.7-23.7,15.4-47.4,23-71.1C117.4,67.3,117.6,65.9,117.9,64.4z"/>
	</g>
</g>
</svg>
