<?xml version="1.0" encoding="utf-8"?>
<!-- Generator: Adobe Illustrator 27.0.0, SVG Export Plug-In . SVG Version: 6.00 Build 0)  -->
<svg version="1.1" id="图层_1" xmlns="http://www.w3.org/2000/svg" xmlns:xlink="http://www.w3.org/1999/xlink" x="0px" y="0px"
	 viewBox="0 0 200 200" style="enable-background:new 0 0 200 200;" xml:space="preserve">
<g>
	<g>
		<path d="M101.1,188.2c-10.8,0-21.7-0.2-32.5,0.1c-5.8,0.2-10-1.4-13.7-6.2c-13.2-17-26.8-33.8-40.4-50.5
			c-3.6-4.5-4.1-9.1-2.8-14.5c4.9-20.9,9.7-41.8,14.3-62.8c1.1-4.9,3.6-8.4,8.2-10.6c20-9.5,40-19.1,59.9-28.6
			c4.3-2,8.9-2.2,13.1-0.3c19.7,9.3,39.3,18.8,59,28.2c5.6,2.7,8.8,7,10.2,13.3c4.5,20.5,9.3,40.9,14.1,61.3
			c1.3,5.5,0.3,10.1-3.2,14.4c-13.9,17.2-27.8,34.4-41.7,51.7c-2.5,3.1-5.6,4.4-9.6,4.4C124.4,188.1,112.7,188.2,101.1,188.2z
			 M146.8,106c0-6.3-0.3-12.7,0.1-19c0.7-9.7-4.2-15.6-12.3-19.7c-9.3-4.7-19.3-6.4-29.5-6.8c-13.9-0.6-27.6,1.1-40.1,8.1
			c-6.3,3.6-10.1,8.8-9.9,16.6c0.2,13.8,0.2,27.6,0,41.5c-0.1,6.2,2.2,11,7,14.7c3.5,2.7,7.4,4.4,11.5,5.9c7.9,2.8,16.2,4,24.5,4.2
			c13.4,0.3,26.6-1.4,38.6-8c6.6-3.6,10.4-9,10.1-17C146.6,119.6,146.8,112.8,146.8,106z"/>
		<path d="M101,142.1c-12.5-0.5-24.9-1.9-36.3-7.7c-1.3-0.7-2.7-1.4-3.7-2.5c-1.5-1.8-1.8-4.4-0.7-6.1c1.5-2.3,3.1,0.3,4.6,1
			c23.9,11.3,47.8,11.3,71.7,0.3c1.6-0.7,3.5-3.7,4.9-1.3c1.5,2.6,0.8,5.8-2.5,7.7c-7.5,4.2-15.7,6.4-24.2,7.5
			C110.3,141.6,105.7,142.5,101,142.1z"/>
		<path d="M100,126c-11.4-0.8-23.5-2.1-34.7-7.4c-2.9-1.4-5.7-2.8-5.4-6.8c0.2-2.6,0.6-3.7,3.6-2.1c23.2,12.2,46.8,12,70.8,2.5
			c1.5-0.6,3-1.5,4.3-2.5c2.8-2,3.3-0.5,3.5,2.1c0.3,4.1-2.5,5.4-5.4,6.8C127.5,122.9,112.3,126,100,126z"/>
		<path d="M100.8,109.2c-11.6,0.3-23.3-1.7-34.5-6.6c-1.7-0.7-3.4-1.5-4.8-2.7c-2.1-1.7-2.3-4.4-1.1-6.4c1.5-2.4,3.2,0.1,4.5,0.9
			c12.4,6.8,25.8,8.2,39.6,7.8c12.2-0.4,23.8-2.5,34.4-9c2.3-1.4,2.9-0.1,3.1,1.9c0.4,3.7-1.8,5.4-4.8,6.8
			C125.9,107.2,113.9,109.4,100.8,109.2z"/>
	</g>
</g>
</svg>
