<?xml version="1.0" encoding="utf-8"?>
<!-- Generator: Adobe Illustrator 27.0.0, SVG Export Plug-In . SVG Version: 6.00 Build 0)  -->
<svg version="1.1" id="图层_1" xmlns="http://www.w3.org/2000/svg" xmlns:xlink="http://www.w3.org/1999/xlink" x="0px" y="0px"
     viewBox="0 0 200 200" style="enable-background:new 0 0 200 200;" xml:space="preserve">
<g>
	<g>
		<path d="M-327.1,378.8c0,48.8,0.4,97.6-0.1,146.3c-0.4,43.5-20.5,75.8-58.4,96.9c-15.5,8.6-32.3,12.5-50.1,12.5
			c-98.2,0-196.5-0.1-294.7,0c-52.1,0-98.7-38-107.4-92.2c-0.8-4.8-1.2-9.7-1.2-14.7c0-99.4-0.1-198.8,0.1-298.2
			c0.1-28.4,10.8-52.9,30.3-73.4c16.7-17.5,37.2-28,61-32.1c4.5-0.8,9.1-1.3,13.6-1.3c100.6,0,201.1-0.2,301.7,0.1
			c24.5,0.1,46.3,9,65.1,24.5c21.2,17.4,33.9,39.8,38.6,66.8c1,5.7,1.3,11.6,1.3,17.4C-327.1,280.6-327.1,329.7-327.1,378.8z
			 M-566.5,595.7c0.1,0.1,0.2,0.2,0.2,0.3c0.3-0.2,0.7-0.4,1-0.6c9.6-6.2,19-12.7,27.9-19.8c17.2-13.7,32.9-28.8,45.9-46.7
			c8.1-11.1,14.8-22.9,19.8-35.7c5.3-13.3,8.1-27.2,9.5-41.5c1.5-14.7,0.7-29.3-3.3-43.5c-8.4-29.4-22.2-56.1-41.4-80
			c-1.8-2.3-3.8-4.5-5.7-6.7c1.8,5.2,2.9,10.3,1.9,15.7c-2.7,14.7-17.7,23.7-31.7,18.8c-9.8-3.4-16.3-12.6-16.3-23.4
			c0.1-14,1.9-27.9,3.6-41.7c1.3-10.3,2.7-20.6,3.2-31c0.7-17.4-3.9-33.8-11.4-49.4c-7.9-16.5-18.5-31.2-30.7-44.7
			c-2.4-2.6-5-5.1-7.5-7.6c1,6.6,2,12.9,2.5,19.3c1.4,17.2-1.2,33.8-7.1,50c-5.5,15.1-14.7,27.9-23.7,40.9
			c-10,14.5-20.7,28.6-30.2,43.4c-11.6,18.1-21.5,37-30.3,56.5c-11.1,24.7-16.6,50.3-13.8,77.4c1.8,17.4,6.9,33.9,14.7,49.5
			c10.1,20.3,24,37.7,40.1,53.5c3.5,3.4,7,6.7,11,9.5c-15.2-16.3-25.7-35.1-31-56.8c-5.3-21.7-4.7-43.2,1.7-64.6
			c6.4-21.3,17.8-39.5,34.1-54.8c0.6,1.1,0.1,1.7-0.1,2.3c-5.6,15.8-5.4,31.5,1.5,46.7c10.5,23.1,28.8,35.7,54.1,37.6
			c15.3,1.1,29.1-3.6,41.3-12.9c3-2.2,3-2.2,4.4,1.2c7.3,19.1,10.1,38.7,7.7,59c-3.6,30.5-16.8,56.1-39.2,77.1
			C-564.6,594.1-565.5,594.9-566.5,595.7z"/>
	</g>
</g>
</svg>
