<?xml version="1.0" encoding="utf-8"?>
<!-- Generator: Adobe Illustrator 27.0.0, SVG Export Plug-In . SVG Version: 6.00 Build 0)  -->
<svg version="1.1" id="图层_1" xmlns="http://www.w3.org/2000/svg" xmlns:xlink="http://www.w3.org/1999/xlink" x="0px" y="0px"
	 viewBox="0 0 200 200" style="enable-background:new 0 0 200 200;" xml:space="preserve">
<g>
	<g>
		<path d="M101.1,188.2c-11.7,0-23.3-0.1-35,0.1c-4.2,0.1-7.4-1.2-10-4.5c-14.3-17.8-28.6-35.5-42.9-53.3c-2.8-3.5-2.9-7.8-1.9-11.9
			c4.9-21.6,9.8-43.2,14.7-64.8c1.1-4.8,4-8.3,8.5-10.4c18.8-8.9,37.7-17.7,56.4-26.9c6.8-3.3,13.2-3.4,20-0.1
			c18.4,9,36.9,17.7,55.5,26.4c5.4,2.5,8.7,6.5,10,12.2c4.7,20.9,9.4,41.9,14.2,62.8c1.3,5.8-0.1,10.6-3.9,15.3
			c-12.9,15.7-25.5,31.6-38.1,47.6c-4.1,5.2-8.5,8.1-15.6,7.7C122.4,187.7,111.7,188.2,101.1,188.2z M103.9,45.8c0,0,0.1,0,0.1,0
			c0-1.7,0.1-3.3,0-5c-0.1-1.9-0.6-3.9-2.9-4c-2.3-0.1-3,1.9-3,3.8c-0.1,2.8,0.1,5.7,0.1,8.5c0,3.9-1.1,6.5-5.7,7.2
			c-9,1.2-16.9,5-23.5,11.3c-3.4,3.3-6.5,2.7-9.7,0c-1.8-1.5-3.3-3.3-5-4.9c-1.8-1.6-3.9-2.6-5.6-0.2c-1.5,2.1-0.5,4.2,1.6,5.5
			c1.8,1.2,3.7,2.2,5.5,3.5c3.3,2.4,5,5.1,2.5,9.3c-4.4,7.4-5.8,15.5-5.4,24c0.3,6.1-1.9,8.3-7.9,9.1c-1.8,0.2-3.7,0.1-5.4,0.6
			c-2.2,0.7-4.8,1.8-3.8,4.8c0.8,2.6,3.2,2.7,5.4,2c2.2-0.6,4.4-1.5,6.6-2.2c4.1-1.4,6.9-0.5,8.6,4c3.2,8.5,9.2,15.1,16.4,20.4
			c3.7,2.7,3.9,5.4,2,8.9c-1.3,2.5-3,4.8-4.2,7.4c-0.9,2-0.6,4.1,1.5,5.2c2.4,1.2,3.9-0.4,4.7-2.3c1.1-2.2,1.8-4.6,2.6-7
			c1.6-4.5,4-6.3,9.1-4.7c8.4,2.7,17.1,2.8,25.5-0.1c4-1.4,6.4-0.1,8,3.5c1.1,2.6,1.8,5.4,3,7.9c0.8,1.9,2.2,3.7,4.6,2.7
			c2.5-1,2.7-3.3,1.8-5.5c-0.9-2.1-2.2-4.1-3.5-6.1c-2.7-4-2.6-7.2,1.8-10.1c7.4-5,12.6-12,15.8-20.1c1.9-4.7,4.7-5.6,9-4.1
			c2.4,0.8,4.7,1.7,7.1,2.3c2.2,0.5,4.1-0.1,4.8-2.5c0.6-2.2-1.1-3.3-2.8-4.2c-1.9-0.9-3.9-0.7-5.9-0.9c-6.7-0.7-8.7-2.8-8.7-9.5
			c0-5.7,0.6-11.6-2.4-16.6c-5.1-8.6-5.5-15.6,5.1-20.3c2.1-0.9,3.1-3.4,1.2-5.5c-1.8-2-4-1.3-5.8,0.3c-1.7,1.5-3.4,3.2-5,4.9
			c-2.9,3-5.7,3.4-9.1,0.4c-7-6.2-15.1-10.4-24.4-11.6c-3.4-0.5-4.5-2.5-4.8-5.4C103.7,49.2,103.9,47.5,103.9,45.8z"/>
		<path d="M62,101.1c0.4-4.1,1.6-9,3.7-13.8c1.3-2.9,2.8-3.3,5.2-1c3.5,3.4,7.3,6.4,10.7,9.7c3.2,3.1,2.7,5.6-1.5,7
			c-4.1,1.5-8.3,2.5-12.5,3.6C62.4,108,61.9,107.6,62,101.1z"/>
		<path d="M140,102.2c0.6,4.4-0.9,6-5.3,4.5c-4.2-1.4-8.7-2.3-12.9-3.9c-4.3-1.6-4.6-3.8-1.4-7c3.2-3.2,6.7-6,9.8-9.2
			c3.2-3.2,4.9-1.9,6.4,1.6C138.5,92.8,139.6,97.5,140,102.2z"/>
		<path d="M117.9,114c5.7,0.9,10.9,1.7,16.1,2.6c2.6,0.4,3.2,1.8,2.1,4.3c-2.5,5.6-6.2,10.2-10.8,14.1c-2.2,1.8-3.8,1.7-4.9-1.2
			c-1.8-4.6-3.9-9.2-5.6-13.8C113.8,116.8,114.3,114.3,117.9,114z"/>
		<path d="M83.7,114.1c3.4,0.2,4.6,2.3,3.4,5.7c-1.7,4.7-3.7,9.2-5.6,13.8c-1,2.5-2.7,2.7-4.7,1.2c-5.2-3.7-8.4-8.8-11.1-14.4
			c-0.9-2-0.2-3.2,1.9-3.6C72.9,115.9,78.1,115,83.7,114.1z"/>
		<path d="M101.4,143.1c-12.8,0-13.6-1.2-7.7-11.6c1.3-2.3,2.5-4.7,3.9-6.9c2.1-3.1,4.6-3.4,6.7-0.1c2.8,4.5,5.3,9.2,7.8,13.9
			c1.1,2,0.3,3.2-1.8,3.6C107.2,142.5,104.2,143.4,101.4,143.1z"/>
		<path d="M105.8,73.2c-0.1-7.8,0.8-8.4,8.3-5.7c4.1,1.4,7.8,3.6,11.2,6.3c2.3,1.9,2.2,3.3-0.3,5c-3.9,2.6-7.5,5.5-11.4,8
			c-3.9,2.6-6.3,1.5-6.9-3.1C106.4,80.1,106.1,76.7,105.8,73.2z"/>
		<path d="M96,70.4c-1.2,4.1-0.5,8.6-0.8,13.1c-0.4,5-2.8,6.1-6.8,3.3c-3.7-2.5-7.3-5.3-11-7.7c-2.8-1.8-3.2-3.4-0.4-5.7
			c4.3-3.6,9.3-5.8,14.7-7.2C95.1,65.4,96.2,66.6,96,70.4z"/>
		<path d="M107.4,103.1c-0.3,4.5-3.7,7.8-6.9,7.5c-3.4-0.3-6.6-4-6-7.3c0.7-3.8,3.1-5.7,7.1-5.5C105.6,98.1,106.8,100.7,107.4,103.1
			z"/>
	</g>
</g>
</svg>
