<?xml version="1.0" encoding="utf-8"?>
<!-- Generator: Adobe Illustrator 27.0.0, SVG Export Plug-In . SVG Version: 6.00 Build 0)  -->
<svg version="1.1" id="图层_1" xmlns="http://www.w3.org/2000/svg" xmlns:xlink="http://www.w3.org/1999/xlink" x="0px" y="0px"
	 viewBox="0 0 200 200" style="enable-background:new 0 0 200 200;" xml:space="preserve">
<g>
	<g>
		<path d="M101,188.2c-11.7,0-23.3-0.1-35,0c-3.7,0-6.9-1-9.3-3.9c-14.1-17.6-28.1-35.3-42.4-52.8c-3.7-4.5-4-9.1-2.7-14.5
			c4.9-20.9,9.7-41.8,14.3-62.8c1.1-4.7,3.4-8.2,7.8-10.3C54,34.4,74.1,24.7,94.2,15.1c4.3-2,8.9-2.2,13.1-0.2
			c19.6,9.2,39,18.7,58.5,28c5.8,2.8,9.2,7.1,10.6,13.5c4.5,20.5,9.3,40.9,14.1,61.3c1.3,5.5,0.2,10.1-3.3,14.4
			c-13.9,17.2-27.8,34.4-41.7,51.7c-2.5,3.1-5.7,4.3-9.6,4.3C124.3,188.1,112.6,188.2,101,188.2z M43.1,104.5c0,9.2,0,18.3,0,27.5
			c0,3,0.7,5.5,3.5,7.2c16.2,9.3,32.3,18.6,48.5,27.9c2.8,1.6,5.2,1.4,8-0.2c15.6-9,31.1-18,46.8-26.9c3.6-2,5.1-4.7,5.1-8.9
			c-0.1-17.5-0.2-35,0-52.5c0-4.4-1.7-7.2-5.4-9.3c-15.3-8.7-30.6-17.6-45.9-26.5c-3-1.8-5.8-2.1-8.9-0.3
			c-15.8,9.2-31.7,18.4-47.6,27.6C44,72,43,74.5,43,78C43.2,86.8,43.1,95.7,43.1,104.5z"/>
		<path d="M146,102.8c0,6.7,0.1,13.3,0,20c-0.1,5.3-0.8,5.1-5.5,3.4c-11.5-4.1-13.9-12.1-12.9-23.3c1-10.9,0.6-10-9.3-5.8
			c-13.2,5.6-18.5,14-16.5,28.4c1.3,9.8,0.3,9.9,9.1,5c0.9-0.5,1.9-0.8,2.6-1.5c9.1-9,17.3-4,25.5,1.6c3.2,2.2,2.6,3.7-0.3,5.4
			c-12.4,7.2-24.8,14.3-37.2,21.5c-2.2,1.3-4.1,0.8-6.1-0.3c-12.1-7-24.2-14-36.3-21c-4-2.4-3.9-3.4-0.1-5.8
			c0.1-0.1,0.3-0.1,0.4-0.3c8.8-7.7,17-7.1,26.6-0.3c10.4,7.5,9.6,5.8,9.6-5.1c0-18.4,0-18.4-16.1-27.3c-9.6-5.3-9.6-5.3-9.6,5.6
			c0,0.5,0,1,0,1.5c0,15.2,0,15.1-13.8,22c-3.2,1.6-4.3,0.7-4.3-2.5c0-14.3,0-28.7,0-43c0-2.6,1.3-4.3,3.5-5.6
			c12.1-7,24.2-14.1,36.3-21.1c2.8-1.6,4.4-1.3,4.5,2.3c0,0.3,0,0.7,0,1c0.6,15.7,0.6,15.7-13.1,23.4c-2.8,1.6-7.4,2.4-7.5,5.6
			c-0.1,2.4,4.5,3.3,7.1,4.7c5.5,3.1,10.6,8.9,16.5,8.4c5.6-0.5,10.8-5.4,16.2-8.5c8.6-5,8.6-5-0.2-10c-0.6-0.3-1.2-0.6-1.7-1
			c-15.5-8.9-12-4.9-12.4-23.4c-0.1-3.8,1.8-4.3,4.8-2.5c12.3,7.1,24.5,14.2,36.8,21.3c2.7,1.5,3.4,3.8,3.4,6.7
			C145.9,89.2,146,96,146,102.8z"/>
	</g>
</g>
</svg>
