<?xml version="1.0" encoding="utf-8"?>
<!-- Generator: Adobe Illustrator 27.0.0, SVG Export Plug-In . SVG Version: 6.00 Build 0)  -->
<svg version="1.1" id="图层_1" xmlns="http://www.w3.org/2000/svg" xmlns:xlink="http://www.w3.org/1999/xlink" x="0px" y="0px"
	 viewBox="0 0 200 200" style="enable-background:new 0 0 200 200;" xml:space="preserve">
<g>
	<g>
		<path d="M100.8,188.2c-11.7,0-23.3-0.1-35,0c-3.8,0-6.8-1.1-9.2-4.1c-14-17.5-27.9-35-42.1-52.4c-3.6-4.5-4.2-9-2.9-14.4
			c4.9-21.1,9.7-42.1,14.4-63.2c1.1-4.7,3.6-8.1,8-10.2C54,34.4,74,24.8,94,15.3c4.5-2.1,9.1-2.3,13.5-0.2
			c19.4,9.2,38.7,18.6,58.1,27.8c6,2.9,9.4,7.2,10.9,13.9c4.5,20.5,9.3,40.9,14.1,61.3c1.2,5.3,0.2,9.8-3.2,14
			c-14,17.3-28,34.7-42,52.1c-2.4,3-5.4,4.2-9.2,4.1C124.4,188.1,112.6,188.2,100.8,188.2z M55.1,93.5c0,5.8,0.4,11.7-0.1,17.5
			c-1.3,14.4,5.8,24,17,31.6c7.5,5.1,15.4,9.3,23.3,13.6c3.3,1.8,6.2,1.8,9.4-0.1c7.2-4.5,14.8-8.5,21.7-13.3
			c9.3-6.4,16.9-14.5,17.3-26.6c0.5-15.3,0-30.6,0.2-46c0-4.2-1.6-6.4-5.6-7.6c-11.9-3.7-23.8-7.5-35.7-11.5
			c-2.4-0.8-4.5-0.6-6.8,0.2C84,55.1,72.3,58.9,60.5,62.4c-4,1.2-5.6,3.4-5.5,7.6C55.2,77.8,55.1,85.7,55.1,93.5z"/>
		<path d="M94.1,116.1c0-1.7-0.2-3.4,0-5c0.6-4.3-0.6-7.1-4.4-10c-7.3-5.6-7.5-15-1.2-21.4c6.3-6.5,15.3-6.3,21.6,0.6
			c5.8,6.3,5,15.4-1.9,21.2c-1.1,1-2.6,1.6-3.6,2.6c-2.3,2.2-1.3,5.2,1.7,5.9c0.2,0,0.3,0,0.5,0.1c3.3,0.5,7.3,0.5,7.2,5.1
			c-0.2,4.4-3.9,4.8-7.4,4.9c-2.3,0.1-3.2,1.4-3.2,3.5c0,0.5,0,1,0,1.5c-0.1,3.3,0.6,7.6-4.1,7.7c-5.1,0.1-4.9-4.5-5.1-8.1
			C93.9,121.8,94.1,119,94.1,116.1z M104.4,89.9c-0.6-3.2-2.3-5.5-5.6-5.3c-3.1,0.2-5.4,2.2-5.2,5.5c0.2,3.1,2.3,5.4,5.5,5.2
			C102.3,95.2,104.1,92.9,104.4,89.9z"/>
	</g>
</g>
</svg>
