<?xml version="1.0" encoding="utf-8"?>
<!-- Generator: Adobe Illustrator 27.0.0, SVG Export Plug-In . SVG Version: 6.00 Build 0)  -->
<svg version="1.1" id="图层_1" xmlns="http://www.w3.org/2000/svg" xmlns:xlink="http://www.w3.org/1999/xlink" x="0px" y="0px"
     viewBox="0 0 200 200" style="enable-background:new 0 0 200 200;" xml:space="preserve">
<g>
	<g>
		<path d="M101.2,179.6c-9.9,0-19.8-0.1-29.8,0c-4.1,0.1-7.1-1.3-9.8-4.6c-12.5-15.6-24.4-31.6-36.5-47.4c-2.6-3.5-3.3-7-2.4-11.1
			c4.3-19.5,8.6-39.1,13-58.6c1-4.6,3.6-8,8.2-10.1c15.6-7.2,31.1-14.8,46.6-22.2c2.5-1.2,4.2-3.8,7.1-4.2c4.2-0.5,8-0.1,12,2.5
			c5.3,3.5,11.3,5.9,17.1,8.7c10.2,5,20.5,9.9,30.8,14.8c5.3,2.5,8.3,6.7,9.5,12.3c4.3,19,8.5,37.9,12.7,56.9
			c0.9,4.1,0.3,7.8-2.4,11.2c-7.8,10-15.6,20-23.4,30.1c-4.5,5.8-8.5,11.8-13.3,17.4c-2.5,2.9-5.2,4.4-9,4.4
			C121.6,179.5,111.4,179.6,101.2,179.6z M109,60.6c0-1,0-2,0-3.1c0-9.2-0.9-10-10-8.7c-1.4,0.2-2.8,0.5-2.7,2.2
			c0.1,3.9-2.3,4.1-5.2,4c-1.8,0-4.2-0.6-4.4,2.2C86.5,60,85.9,63,87,65.5c1.1,2.5,3.9,1,6,1.4c1.6,0.3,2.9,0.7,3.1,2.5
			c0.2,2.1-1.5,2.3-3,2.2c-3.2-0.2-4.1,1.4-3.9,4.3c0.1,1.5,0,2.9,0,4.4c0,2.6-0.2,4.8,3.5,5.4c2.6,0.4,2.6,3.1,2.7,5.4
			c0,2-0.3,3.6-2.6,4.4c-6.9,2.4-12.2,6.1-15.8,13.2c-6,11.8-5.2,22,1.6,32.1c6.5,9.7,16.8,13.4,28,11.1c9.6-2,17.3-7.4,20.6-17.9
			c5-15.4-0.4-30.6-14.8-37.5c-3.4-1.7-4.1-3.4-4.3-6.8C107.7,79.8,109,70.2,109,60.6z"/>
    <path d="M101.1,139.2C90.8,140,86,131,85.5,122.7c-0.4-7.1,8.8-16.1,15.7-16.2c7.3-0.1,15.1,8.7,15.1,16.9
			C116.3,132.8,110.2,139.2,101.1,139.2z"/>
	</g>
</g>
</svg>
