<?xml version="1.0" encoding="utf-8"?>
<!-- Generator: Adobe Illustrator 27.0.0, SVG Export Plug-In . SVG Version: 6.00 Build 0)  -->
<svg version="1.1" id="图层_1" xmlns="http://www.w3.org/2000/svg" xmlns:xlink="http://www.w3.org/1999/xlink" x="0px" y="0px"
	 viewBox="0 0 200 200" style="enable-background:new 0 0 200 200;" xml:space="preserve">
<g>
	<g>
		<path d="M99.7,192c-11.4,0-22.9-0.1-34.3,0c-3.9,0-7.1-1-9.6-4.2c-14-17.5-28-35.1-42.1-52.6c-3.4-4.2-3.8-8.5-2.7-13.5
			c4.9-21.1,9.7-42.3,14.5-63.4c1.1-4.7,3.6-8,8-10.1c19.9-9.4,39.8-19,59.6-28.4c4.3-2,8.8-2.3,13-0.3
			c19.8,9.3,39.5,18.8,59.1,28.3c5.4,2.6,8.4,6.9,9.8,12.9c4.5,20.5,9.4,41,14.2,61.4c1.2,5,0.3,9.5-3,13.5
			c-14,17.4-28.1,34.8-42.1,52.2c-2.4,3-5.4,4.1-9.2,4C123.2,191.9,111.5,192,99.7,192z M73.2,102.5c-4.3,0-8.6,0-12.9,0
			c-11.7,0-11.9,0-11.6,11.9c0.1,2.6-2.2,7.2,3,7.3c5.4,0.1,3.3-4.5,3.2-7.1c0-4.3,1.5-5.8,5.8-5.7c9.6,0.2,19.2,0.1,28.8,0.1
			c7.7,0,7.7,0,7.8,7.5c0,1,0,2,0.1,3c0.1,1.6,1,2.4,2.6,2.4c1.6,0,2.5-0.7,2.6-2.3c0.1-1.7,0.3-3.3,0.1-5c-0.5-4.5,1.6-5.7,5.8-5.6
			c8.4,0.2,16.9,0.1,25.4,0.1c10,0,10,0,11.1,9.6c0.3,2.2,1.1,3.3,3.4,3.3c2.4,0,3.2-1.3,3.2-3.5c0-3.6-0.2-7.3,0.1-10.9
			c0.3-4-1.5-5.1-5.3-5.1c-11.6,0.2-23.2,0.1-34.8,0.1c-9.5,0-8.7,0.4-8.8-8.5c0-1,0-2-0.1-3c-0.1-1.6-1-2.4-2.6-2.4
			c-1.6,0-2.5,0.7-2.6,2.3c-0.1,1.3-0.1,2.6-0.1,4c0,7.5,0,7.5-7.8,7.5C84.1,102.5,78.6,102.5,73.2,102.5z M100.5,56.7
			c-5,0-9.9,0.1-14.9,0c-2.8-0.1-4.3,0.9-4.3,4c0.1,6.5,0.1,12.9,0,19.4c0,3,1.2,4.2,4.1,4.1c9.8-0.1,19.5-0.1,29.3,0
			c2.6,0,4-0.9,4-3.7c-0.1-6.6-0.1-13.2,0-19.9c0-2.7-1.2-3.9-3.9-3.9C110.1,56.7,105.3,56.7,100.5,56.7z M51.8,127.4
			c-4.5,0-8.9,0.1-13.4,0c-3.3-0.1-4.9,0.8-4.8,4.4c0.2,5.9,0.1,11.9,0,17.8c-0.1,2.9,1.1,4.2,4.1,4.2c9.4-0.1,18.8-0.1,28.3,0
			c3,0,4.1-1.3,4-4.2c-0.1-6.1-0.1-12.2,0-18.3c0-2.7-1.1-3.9-3.8-3.9C61.4,127.5,56.6,127.4,51.8,127.4z M99.5,153.8
			c4.6,0,9.3-0.1,13.9,0c2.8,0.1,4.4-0.8,4.3-3.9c-0.1-6.3-0.1-12.6,0-18.8c0-2.4-0.9-3.7-3.5-3.7c-9.7,0-19.5,0-29.2,0
			c-2.5,0-3.6,1.1-3.6,3.6c0,6.3,0.1,12.6,0,18.8c0,3.1,1.5,4,4.3,4C90.2,153.7,94.8,153.8,99.5,153.8z M148.4,127.4
			c-4.8,0-9.6,0.1-14.4,0c-2.7,0-4,0.9-4,3.7c0.1,6.3,0.1,12.6,0,18.8c0,2.7,1.2,3.9,3.9,3.8c9.6-0.1,19.2-0.1,28.7,0
			c2.8,0,3.7-1.4,3.7-4c-0.1-6.1-0.1-12.2,0-18.3c0.1-3-1.2-4.1-4.1-4.1C157.7,127.5,153.1,127.4,148.4,127.4z"/>
	</g>
</g>
</svg>
