<?xml version="1.0" encoding="utf-8"?>
<!-- Generator: Adobe Illustrator 27.0.0, SVG Export Plug-In . SVG Version: 6.00 Build 0)  -->
<svg version="1.1" id="图层_1" xmlns="http://www.w3.org/2000/svg" xmlns:xlink="http://www.w3.org/1999/xlink" x="0px" y="0px"
	 viewBox="0 0 200 200" style="enable-background:new 0 0 200 200;" xml:space="preserve">
<g>
	<g>
		<path d="M100.7,188.2c-11.5,0-23-0.1-34.5,0c-3.9,0-7.1-1-9.7-4.2c-14.1-17.6-28.1-35.3-42.3-52.8c-3.4-4.2-3.8-8.6-2.7-13.6
			c4.9-21.2,9.8-42.5,14.6-63.7c1.1-4.7,3.6-8,8.1-10.1c20-9.5,40-19.1,59.9-28.6c4.3-2,8.9-2.3,13.1-0.3
			c19.9,9.4,39.6,18.9,59.4,28.5c5.5,2.6,8.5,7,9.8,13c4.6,20.6,9.4,41.2,14.2,61.8c1.2,5.1,0.3,9.5-3,13.6
			c-14.1,17.5-28.2,35-42.3,52.5c-2.4,3-5.5,4.1-9.2,4.1C124.3,188.1,112.5,188.2,100.7,188.2z M105.3,127.9c0,8.5,0,17,0,25.5
			c0,6.5,2.2,8,7.8,5.2c13.1-6.4,26.3-12.9,39.2-19.7c4.8-2.5,7.6-6.5,7.6-12.5c-0.2-14,0-28-0.1-41.9c0-6.3-1.2-7.3-7-5.3
			c-14.4,5-28.8,10.2-43.1,15.3c-3,1.1-4.5,3-4.4,6.4C105.4,109.9,105.3,118.9,105.3,127.9z M96.7,128c0-9-0.1-18,0-27
			c0-3-1-5.2-3.9-6.2C78.3,89.5,63.7,84,49,78.8c-5-1.8-6.7-0.3-6.7,5c-0.1,13.5,0.1,27-0.1,40.4c-0.1,5.7,2.5,9.8,7,12.3
			c13.3,7.5,26.8,14.6,40.3,21.8c4.9,2.6,7.2,1.1,7.3-4.4C96.8,145.3,96.7,136.7,96.7,128z M100.8,89c1.9-0.5,3.9-0.9,5.7-1.6
			c14.6-5.2,29.1-10.4,43.6-15.6c1.5-0.6,3.7-0.8,3.9-2.6c0.2-2.3-2.3-2.4-3.9-3c-14.5-5.4-29-10.7-43.5-16c-3.7-1.4-7.5-1.4-11.2,0
			c-14.8,5.5-29.5,11-44.3,16.6c-1.3,0.5-3.4,0.3-3.2,2.4c0.1,1.7,2,1.6,3.1,2c9.3,3.5,18.6,7,28,10.4C86.2,84.2,93.5,86.5,100.8,89
			z"/>
	</g>
</g>
</svg>
